<svg width="50" height="50" viewBox="0 0 50 50" fill="none" xmlns="http://www.w3.org/2000/svg">
<g id="Group 18">
<rect id="Rectangle 1" x="15" y="35" width="5" height="5" fill="black" fill-opacity="0.2"/>
<rect id="Rectangle 39" x="15" y="35" width="5" height="5" fill="black" fill-opacity="0.2"/>
<rect id="Rectangle 6" x="5" y="25" width="5" height="5" fill="black" fill-opacity="0.2"/>
<rect id="Rectangle 42" x="15" y="15" width="5" height="5" fill="white" fill-opacity="0.1"/>
<rect id="Rectangle 44" x="5" y="5" width="5" height="5" fill="white" fill-opacity="0.1"/>
<rect id="Rectangle 45" x="35" y="25" width="5" height="5" fill="white" fill-opacity="0.1"/>
<rect id="Rectangle 46" x="40" y="40" width="5" height="5" fill="white" fill-opacity="0.1"/>
<rect id="Rectangle 43" x="10" y="25" width="5" height="5" fill="white" fill-opacity="0.1"/>
<rect id="Rectangle 2" x="20" y="40" width="5" height="5" fill="black" fill-opacity="0.2"/>
<rect id="Rectangle 3" x="10" y="45" width="10" height="5" fill="black" fill-opacity="0.2"/>
<rect id="Rectangle 4" y="35" width="10" height="5" fill="black" fill-opacity="0.2"/>
<rect id="Rectangle 7" width="5" height="5" transform="matrix(1 0 0 -1 0 50)" fill="black" fill-opacity="0.2"/>
<rect id="Rectangle 8" width="5" height="5" transform="matrix(1 0 0 -1 0 45)" fill="black" fill-opacity="0.2"/>
<rect id="Rectangle 5" x="15" y="25" width="10" height="5" fill="black" fill-opacity="0.2"/>
<rect id="Rectangle 9" x="15" y="10" width="5" height="5" fill="black" fill-opacity="0.2"/>
<rect id="Rectangle 33" x="15" y="5" width="5" height="5" fill="black" fill-opacity="0.2"/>
<rect id="Rectangle 10" x="5" width="5" height="5" fill="black" fill-opacity="0.2"/>
<rect id="Rectangle 11" x="20" y="15" width="5" height="5" fill="black" fill-opacity="0.2"/>
<rect id="Rectangle 37" x="20" y="15" width="5" height="5" fill="black" fill-opacity="0.2"/>
<rect id="Rectangle 36" x="40" y="5" width="5" height="5" fill="black" fill-opacity="0.2"/>
<rect id="Rectangle 13" y="10" width="10" height="5" fill="black" fill-opacity="0.2"/>
<rect id="Rectangle 38" y="10" width="10" height="5" fill="black" fill-opacity="0.2"/>
<rect id="Rectangle 14" width="5" height="5" transform="matrix(1 0 0 -1 0 25)" fill="black" fill-opacity="0.2"/>
<rect id="Rectangle 16" x="15" width="10" height="5" fill="black" fill-opacity="0.2"/>
<rect id="Rectangle 17" x="40" y="30" width="5" height="5" fill="black" fill-opacity="0.2"/>
<rect id="Rectangle 19" x="45" y="40" width="5" height="5" fill="black" fill-opacity="0.2"/>
<rect id="Rectangle 20" x="35" y="45" width="10" height="5" fill="black" fill-opacity="0.2"/>
<rect id="Rectangle 21" x="25" y="30" width="10" height="5" fill="black" fill-opacity="0.2"/>
<rect id="Rectangle 22" width="5" height="5" transform="matrix(1 0 0 -1 25 50)" fill="black" fill-opacity="0.2"/>
<rect id="Rectangle 23" width="5" height="5" transform="matrix(1 0 0 -1 25 45)" fill="black" fill-opacity="0.2"/>
<rect id="Rectangle 41" width="5" height="5" transform="matrix(1 0 0 -1 25 45)" fill="black" fill-opacity="0.2"/>
<rect id="Rectangle 24" x="40" y="25" width="10" height="5" fill="black" fill-opacity="0.2"/>
<rect id="Rectangle 40" x="40" y="25" width="10" height="5" fill="black" fill-opacity="0.2"/>
<rect id="Rectangle 25" x="40" y="10" width="5" height="5" fill="black" fill-opacity="0.2"/>
<rect id="Rectangle 34" x="40" y="5" width="5" height="5" fill="black" fill-opacity="0.2"/>
<rect id="Rectangle 35" x="40" y="5" width="5" height="5" fill="black" fill-opacity="0.2"/>
<rect id="Rectangle 26" x="30" width="5" height="5" fill="black" fill-opacity="0.2"/>
<rect id="Rectangle 27" x="45" y="15" width="5" height="5" fill="black" fill-opacity="0.2"/>
<rect id="Rectangle 28" x="35" y="20" width="10" height="5" fill="black" fill-opacity="0.2"/>
<rect id="Rectangle 29" x="25" y="10" width="10" height="5" fill="black" fill-opacity="0.2"/>
<rect id="Rectangle 30" width="5" height="5" transform="matrix(1 0 0 -1 25 25)" fill="black" fill-opacity="0.2"/>
<rect id="Rectangle 32" x="40" width="10" height="5" fill="black" fill-opacity="0.2"/>
</g>
</svg>
