<svg width="24" height="24" viewBox="0 0 24 24" fill="none" xmlns="http://www.w3.org/2000/svg">
<g id="social">
<path id="Fill 8" fill-rule="evenodd" clip-rule="evenodd" d="M8.00002 13C5.66702 13 0.999023 14.167 0.999023 16.5V18.999H15V16.5C15 14.167 10.334 13 8.00002 13ZM16.001 13C15.71 13 15.384 13.018 15.035 13.054C16.193 13.892 17 15.017 17 16.5V18.999H22.999V16.5C22.999 14.167 18.334 13 16.001 13ZM8.00002 4.999C6.34402 4.999 5.00002 6.344 5.00002 8C5.00002 9.656 6.34402 11 8.00002 11C9.65702 11 10.991 9.656 10.991 8C10.991 6.344 9.65702 4.999 8.00002 4.999ZM16.001 4.999C14.343 4.999 13 6.344 13 8C13 9.656 14.343 11 16.001 11C17.657 11 18.99 9.656 18.99 8C18.99 6.344 17.657 4.999 16.001 4.999Z" fill="#6FB285"/>
</g>
</svg>
