<svg xmlns="http://www.w3.org/2000/svg" width="24" height="24" viewBox="0 0 24 24" fill="none">
	<path fill-rule="evenodd" clip-rule="evenodd"
		  d="M8.00002 17.7666C6.89602 17.7666 6.01002 18.6616 6.01002 19.7666C6.01002 20.8706 6.89602 21.7666 8.00002 21.7666C9.10502 21.7666 10 20.8706 10 19.7666C10 18.6616 9.10502 17.7666 8.00002 17.7666ZM18 17.7666C16.896 17.7666 16.01 18.6616 16.01 19.7666C16.01 20.8706 16.896 21.7666 18 21.7666C19.105 21.7666 20 20.8706 20 19.7666C20 18.6616 19.105 17.7666 18 17.7666ZM4.00002 1.7666H1.99902V3.7656H4.00002L7.59802 11.3536L6.24502 13.8046C6.08902 14.0916 6.00002 14.4196 6.00002 14.7666C6.00002 15.8706 6.89602 16.7666 8.00002 16.7666H20V14.7666H8.42302C8.28502 14.7666 8.17402 14.6556 8.17402 14.5166L8.20402 14.3956L9.10202 12.7666H16.551C17.303 12.7666 17.959 12.3516 18.301 11.7376L21.875 5.2486C21.955 5.1066 22.001 4.9416 22.001 4.7666C22.001 4.2136 21.553 3.7656 21 3.7656H6.21302L5.80702 2.9116C5.48802 2.2346 4.79802 1.7666 4.00002 1.7666Z"
		  fill="#6FB285"/>
</svg>
