<svg width="68" height="24" viewBox="0 0 68 24" fill="none" xmlns="http://www.w3.org/2000/svg">
<g id="Buttons">
<g id="share">
<path id="Shape" fill-rule="evenodd" clip-rule="evenodd" d="M62 16.1365C61.24 16.1365 60.56 16.4377 60.04 16.9095L52.91 12.7429C52.96 12.512 53 12.281 53 12.0401C53 11.7991 52.96 11.5682 52.91 11.3373L59.96 7.21075C60.5 7.71276 61.21 8.024 62 8.024C63.66 8.024 65 6.67862 65 5.01196C65 3.34529 63.66 1.99991 62 1.99991C60.34 1.99991 59 3.34529 59 5.01196C59 5.25292 59.04 5.48384 59.09 5.71477L52.04 9.84127C51.5 9.33927 50.79 9.02802 50 9.02802C48.34 9.02802 47 10.3734 47 12.0401C47 13.7067 48.34 15.0521 50 15.0521C50.79 15.0521 51.5 14.7409 52.04 14.2389L59.16 18.4156C59.11 18.6264 59.08 18.8473 59.08 19.0682C59.08 20.6846 60.39 21.9999 62 21.9999C63.61 21.9999 64.92 20.6846 64.92 19.0682C64.92 17.4517 63.61 16.1365 62 16.1365Z" fill="white"/>
</g>
<g id="favorite">
<path id="Shape_2" fill-rule="evenodd" clip-rule="evenodd" d="M16.5 5C14.5 5 12.7 6.3 12 8C11.3 6.3 9.5 5 7.5 5C5 5 3 6.9 3 9.5C3 13 6.5 16 12 21C17.5 16 21 13 21 9.5C21 6.9 19 5 16.5 5Z" fill="white"/>
</g>
</g>
</svg>
